<svg xmlns="http://www.w3.org/2000/svg" viewBox="0 0 900 700" role="img" aria-label="Concentrated Wax">
  <defs>
    <linearGradient id="bg" x1="0" x2="1" y1="0" y2="1">
      <stop offset="0" stop-color="#fbf8ef"/>
      <stop offset="1" stop-color="#efe4ba"/>
    </linearGradient>
    <linearGradient id="bottle" x1="0" x2="1">
      <stop offset="0" stop-color="#ffffff" stop-opacity=".95"/>
      <stop offset=".52" stop-color="#9b7740"/>
      <stop offset="1" stop-color="#1f2e24"/>
    </linearGradient>
    <filter id="shadow" x="-30%" y="-30%" width="160%" height="160%">
      <feDropShadow dx="0" dy="28" stdDeviation="28" flood-color="#1f2e24" flood-opacity=".18"/>
    </filter>
  </defs>
  <rect width="900" height="700" rx="52" fill="url(#bg)"/>
  <circle cx="720" cy="140" r="120" fill="#fff" opacity=".42"/>
  <circle cx="165" cy="560" r="170" fill="#fff" opacity=".38"/>
  <ellipse cx="455" cy="585" rx="245" ry="58" fill="#1f2e24" opacity=".12"/>
  <g filter="url(#shadow)">
    <rect x="355" y="135" width="185" height="405" rx="42" fill="url(#bottle)"/>
    <rect x="394" y="82" width="106" height="78" rx="24" fill="#1f2e24"/>
    <rect x="375" y="250" width="145" height="150" rx="22" fill="#fbf8ef" opacity=".92"/>
    <text x="448" y="315" text-anchor="middle" font-family="Arial, sans-serif" font-size="38" font-weight="800" fill="#1f2e24">EP</text>
    <text x="448" y="352" text-anchor="middle" font-family="Arial, sans-serif" font-size="18" font-weight="700" fill="#9b7740">Chemical</text>
  </g>
  <path d="M245 185c46-38 88-42 126-12" fill="none" stroke="#fff" stroke-width="20" stroke-linecap="round" opacity=".55"/>
  <path d="M595 480c54 16 92 6 119-29" fill="none" stroke="#fff" stroke-width="20" stroke-linecap="round" opacity=".45"/>
  <text x="450" y="645" text-anchor="middle" font-family="Arial, sans-serif" font-size="34" font-weight="800" fill="#1f2e24">Concentrated Wax</text>
</svg>